PathFileType	4	(X/Y/Z)	Patient4_TMGait_0pt3_01_left_05.trc.trc
DataRate	CameraRate	NumFrames	NumMarkers	Units	OrigDataRate	OrigDataStartFrame	OrigNumFrames
52.830188679245	52.830188679245	4	33	mm	52.830188679245	36	       141
Frame#	Time	Sacral			L.Shoulder			Chest			R.Shoulder			Neck			R.ASIS			L.ASIS			R.Thigh.Superior			R.Thigh.Lateral			R.Thigh.Inferior			R.Patella			L.Thigh.Superior			L.Thigh.Lateral			L.Thigh.Inferior			L.Patella			L.Shank.Superior			L.Shank.Lateral			L.Shank.Inferior			R.Shank.Superior			R.Shank.Lateral			R.Shank.Inferior			R.Heel			R.Midfoot.Superior			R.Midfoot.Lateral			R.Toe			L.Heel			L.Midfoot.Lateral			L.Midfoot.Superior			L.Toe			L.Elbow			L.Wrist			R.Elbow			R.Wrist			
		X1	Y1	Z1	X2	Y2	Z2	X3	Y3	Z3	X4	Y4	Z4	X5	Y5	Z5	X6	Y6	Z6	X7	Y7	Z7	X8	Y8	Z8	X9	Y9	Z9	X10	Y10	Z10	X11	Y11	Z11	X12	Y12	Z12	X13	Y13	Z13	X14	Y14	Z14	X15	Y15	Z15	X16	Y16	Z16	X17	Y17	Z17	X18	Y18	Z18	X19	Y19	Z19	X20	Y20	Z20	X21	Y21	Z21	X22	Y22	Z22	X23	Y23	Z23	X24	Y24	Z24	X25	Y25	Z25	X26	Y26	Z26	X27	Y27	Z27	X28	Y28	Z28	X29	Y29	Z29	X30	Y30	Z30	X31	Y31	Z31	X32	Y32	Z32	X33	Y33	Z33	

36	9.332500000000	812.360421409010	995.862004981402	559.259557846897	934.623617227678	1419.260737106985	340.903448874586	1071.414287273238	1360.197521080804	479.008541834266	1022.158949620286	1439.857636421603	662.310528184227	951.530122405417	1486.284348633650	495.374844456916	1056.024780486715	930.781590525677	640.748042230066	1004.259772167008	956.545631083997	371.060883199396	1051.747198048295	716.988947052833	615.423132487458	952.560419470746	619.985978728517	682.293972953400	1010.206806164937	555.184891037623	599.692959047655	988.332917785752	463.246994597194	607.909193283312	1083.906001996789	762.612380406050	406.392603332307	1019.631905929266	633.858489899063	340.583990588074	1117.100786956230	568.926827344522	402.005273937052	1128.525859838461	496.154817668563	405.281456213997	1100.176906669952	421.291733562428	395.643004162791	1011.211675544264	308.688332451212	340.653749388118	1063.498396069375	194.143144555804	404.054747867503	934.777133431965	385.199080328786	617.894459943265	837.517516877622	305.383312796188	682.165342421522	852.112752389678	201.956792477339	621.941632415802	684.348159772248	59.798639759335	589.986532876961	856.376988173987	99.247315611328	636.688769774488	761.296743101251	45.622039358131	669.520170254133	968.684552193149	38.451685205560	674.837842743558	936.136135538851	38.524970252904	439.265750129782	1009.104815153236	36.757880519060	357.832373307532	1093.181517855562	97.067533488267	385.048524263928	1220.301731538568	45.406315635592	352.713456960649	807.032574603044	1083.229865164282	270.986383004953	859.904796075375	826.401966981259	276.070429015802	1214.671085202563	1168.647255346748	777.311535082657	1434.249899584923	1266.703576852049	698.202417879667	
37	9.351428571429	812.342612497034	996.837067087920	554.321443218806	936.181525020018	1420.397038278785	337.154486060471	1072.332187497697	1360.844251771679	475.764393243106	1022.337557147573	1440.299335377156	658.907923995840	952.286412099201	1487.093891974628	491.887871917959	1055.622170287506	931.235115876126	636.860991434968	1004.967750873002	957.207015287043	367.067642128313	1051.137317789774	717.546646804023	612.395290972151	951.780816547026	620.951606139086	679.529813462610	1009.819467578320	555.533874062276	597.543535043908	987.934632012183	463.238838675541	606.519255481095	1083.407662016263	762.313146502875	402.939703036313	1018.185113510370	633.677257987376	337.901551921147	1114.921848227556	568.240917764344	399.837222842391	1125.928402840736	495.468439125246	403.628043431178	1097.077285846907	420.676345271469	394.317906507648	1007.669919918930	308.396120548000	339.643263910832	1058.792426400127	193.780186489613	403.655661751861	933.267536163515	385.871911807587	616.678025342462	834.924147131711	307.518962160075	681.033495686049	848.738987848903	203.454885763613	621.589993584041	679.528461132956	63.297490387359	590.177493902521	851.940912286645	99.993810627857	636.967306363960	756.265015358520	47.681819478600	669.607867222837	963.284720088800	37.962148854898	674.913006071071	930.567184427747	38.558165712196	439.222192653285	1003.549940646822	36.797066498138	357.821359411352	1087.704033548737	97.008262994759	385.067716870891	1214.817680041477	45.045797456694	352.707263516865	810.951715966051	1083.547108123738	265.441743316476	873.019644050704	828.637571530213	269.193181594181	1215.007405566145	1168.748271548967	773.074228587017	1438.420919877319	1261.661618000009	697.475794248863	
38	9.370357142857	812.212233377225	997.839462232654	549.322070858094	937.913626591716	1421.589785796848	333.393516749262	1073.242585848090	1361.524182933741	472.661339005248	1022.321387151706	1440.794421147660	655.587126116402	953.042841884742	1487.964094575609	488.369727189539	1055.084465023619	931.777496225762	633.050593108052	1005.612227844933	957.903477535465	363.099286465709	1050.610456112107	718.242764755668	609.346869479061	951.215556981950	621.946046693334	676.738626600241	1009.716803140356	555.975546013581	595.369234409411	987.893701598104	463.254727702038	605.161974697736	1082.694691058894	761.940813747289	399.351993303104	1016.307174707520	633.495774542696	335.192547122894	1112.341708861251	567.529969884184	397.531863231779	1122.884866339907	494.784188933756	401.852846354296	1093.578902469112	420.097299637623	392.885769659911	1003.749722597731	308.069241157622	338.609221891201	1053.920074510566	193.447118471003	403.197245791754	932.046130867572	386.588493332881	615.459137635494	832.594346662110	309.758942666910	679.846178268397	845.598526754557	205.059927456500	621.219880876166	674.829403231617	67.061430719208	590.334278600436	847.655349364039	100.791020578927	637.224492533529	751.305654067920	49.929209233552	669.669065193089	957.877107817477	37.540883688229	674.959774797089	924.962847312320	38.582852517300	439.195820497759	997.945865540814	36.807605891583	357.811158987111	1082.170542441539	96.930305461963	385.047863887987	1209.273637800028	44.694500061805	352.665986280758	815.497002991919	1083.878134313328	259.386728126762	886.481188201654	831.215885432993	261.922689306721	1214.531976234745	1168.416415023849	769.157980814033	1442.163683456333	1255.120671893747	697.527713164064	
39	9.389285714286	811.993641708176	998.833251855534	544.284460513481	939.747255724294	1422.810006193251	329.642306537991	1074.107418447010	1362.228090420147	469.686517907429	1022.107782160879	1441.323514857958	652.351762468563	953.768852906579	1488.872087559394	484.833830232411	1054.442184735466	932.387856495658	629.308902843413	1006.208164758136	958.615608540837	359.149335809138	1050.184449393539	719.046381149392	606.292916516528	950.869028190455	622.944543835033	673.934394288206	1009.908902381219	556.487108765016	593.187536749313	988.196967935055	463.270373619771	603.846829474502	1081.819027828376	761.511758153848	395.661716086106	1014.100128825701	633.322540422601	332.460331868747	1109.455242263858	566.806973510738	395.103701481676	1119.488229901416	494.107090145661	399.964618496988	1089.773554712000	419.549745551944	391.349544787321	999.528072807382	307.718457722937	337.538778067781	1048.918625009597	193.142481371025	402.684968447519	931.107874618195	387.323647117119	614.247540580617	830.521517217372	312.082574810259	678.615035624281	842.687674431819	206.748045334591	620.837429853781	670.251104180864	71.048240651841	590.456007069414	843.521527991300	101.616405321957	637.454297937419	746.419480797754	52.333997925778	669.702713588493	952.464166000896	37.195407822477	674.975373463002	919.324812576855	38.604356274391	439.183768242845	992.297102497066	36.797683203521	357.801590454825	1076.587612473433	96.837834228117	384.998137642857	1203.676610620860	44.356309361804	352.601755438521	820.642506678965	1084.195310259368	252.835749490197	900.173781316636	834.066388652178	254.303997294782	1213.192474297963	1167.595695098793	765.602075073043	1445.275616505814	1247.058607501006	698.371015328495	
